<?xml version="1.0" encoding="UTF-8" standalone="no"?>
<svg
   viewBox="98.794 99 202.333 163.531"
   version="1.1"
   id="svg1"
   sodipodi:docname="devicon.svg"
   inkscape:version="1.3.2 (9e3d6414e7, 2024-01-14, custom)"
   inkscape:export-filename="devicon.svg"
   inkscape:export-xdpi="96"
   inkscape:export-ydpi="96"
   xmlns:inkscape="http://www.inkscape.org/namespaces/inkscape"
   xmlns:sodipodi="http://sodipodi.sourceforge.net/DTD/sodipodi-0.dtd"
   xmlns="http://www.w3.org/2000/svg"
   xmlns:svg="http://www.w3.org/2000/svg"
   xmlns:bx="https://boxy-svg.com">
  <sodipodi:namedview
     id="namedview1"
     pagecolor="#ffffff"
     bordercolor="#000000"
     borderopacity="0.25"
     inkscape:showpageshadow="2"
     inkscape:pageopacity="0.0"
     inkscape:pagecheckerboard="0"
     inkscape:deskcolor="#d1d1d1"
     inkscape:zoom="1.7468928"
     inkscape:cx="-73.559178"
     inkscape:cy="12.593789"
     inkscape:window-width="1854"
     inkscape:window-height="1011"
     inkscape:window-x="66"
     inkscape:window-y="32"
     inkscape:window-maximized="1"
     inkscape:current-layer="svg1" />
  <defs
     id="defs1">
    <inkscape:path-effect
       effect="fillet_chamfer"
       id="path-effect5"
       is_visible="true"
       lpeversion="1"
       nodesatellites_param="F,0,0,1,0,35.036676,0,1 @ F,0,0,1,0,5.093385,0,1 @ F,0,0,1,0,2.1311815,0,1 @ F,0,0,1,0,1.7848357,0,1 @ F,0,0,1,0,4.6980067,0,1 @ F,0,0,1,0,29.079481,0,1 @ F,0,0,1,0,29.079481,0,1 @ F,0,0,1,0,2.7373839,0,1 @ F,0,0,1,0,0,0,1 @ F,0,0,1,0,0,0,1 @ F,0,0,1,0,0,0,1 @ F,0,0,1,0,0,0,1 @ F,0,0,1,0,0,0,1 @ F,0,0,1,0,0,0,1 @ F,0,0,1,0,0,0,1 @ F,0,0,1,0,0,0,1 @ F,0,0,1,0,0,0,1 @ F,0,0,1,0,2.7373839,0,1 @ F,0,0,1,0,35.036676,0,1 | F,0,0,1,0,1.6871395,0,1 @ F,0,0,1,0,0,0,1 @ F,0,0,1,0,22.885263,0,1 @ F,0,0,1,0,22.885263,0,1 @ F,0,0,1,0,2.7373839,0,1 @ F,0,0,1,0,0,0,1 @ F,0,0,1,0,2.2832351,0,1 @ F,0,0,1,0,2.2832351,0,1 @ F,0,0,1,0,0,0,1 @ F,0,0,1,0,0,0,1 @ F,0,0,1,0,0,0,1 @ F,0,0,1,0,0,0,1 @ F,0,0,1,0,0,0,1 @ F,0,0,1,0,0,0,1 @ F,0,0,1,0,0,0,1 @ F,0,0,1,0,0,0,1 @ F,0,0,1,0,0,0,1 @ F,0,0,1,0,0,0,1 @ F,0,0,1,0,0,0,1 @ F,0,0,1,0,0,0,1 @ F,0,0,1,0,0,0,1 @ F,0,0,1,0,3.9228551,0,1 @ F,0,0,1,0,14.917729,0,1 @ F,0,0,1,0,14.917729,0,1 @ F,0,0,1,0,3.9228551,0,1 @ F,0,0,1,0,0,0,1 @ F,0,0,1,0,2.296956,0,1 @ F,0,0,1,0,1.5943021,0,1 @ F,0,0,1,0,1.5943021,0,1"
       radius="0"
       unit="px"
       method="auto"
       mode="F"
       chamfer_steps="1"
       flexible="false"
       use_knot_distance="true"
       apply_no_radius="true"
       apply_with_radius="true"
       only_selected="false"
       hide_knots="false" />
    <inkscape:path-effect
       effect="fillet_chamfer"
       id="path-effect4"
       is_visible="true"
       lpeversion="1"
       nodesatellites_param="F,0,0,1,0,13.531278,0,1 @ F,0,0,1,0,13.531278,0,1 @ F,0,0,1,0,0,0,1 @ F,0,0,1,0,0,0,1 @ F,0,0,1,0,12.771927,0,1 @ F,0,0,1,0,12.771927,0,1 @ F,0,0,1,0,12.771927,0,1 @ F,0,0,1,0,12.771927,0,1 @ F,0,0,1,0,0,0,1 @ F,0,0,1,0,0,0,1 @ F,0,0,1,0,0,0,1 @ F,0,0,1,0,0,0,1 @ F,0,0,1,0,0,0,1 @ F,0,0,1,0,0,0,1 @ F,0,0,1,0,0,0,1 @ F,0,0,1,0,0,0,1 @ F,0,0,1,0,0,0,1 @ F,0,0,1,0,12.464671,0,1 @ F,0,0,1,0,12.464671,0,1 | F,0,0,1,0,0,0,1 @ F,0,1,1,0,8.2295791,0,1 @ F,0,1,1,0,8.2295791,0,1 @ F,0,0,1,0,0,0,1 @ F,0,0,1,0,0,0,1 @ F,0,0,1,0,0,0,1 @ F,0,0,1,0,0,0,1 @ F,0,0,1,0,0,0,1 @ F,0,0,1,0,0,0,1 @ F,0,0,1,0,0,0,1 @ F,0,0,1,0,0,0,1 @ F,0,0,1,0,0,0,1 @ F,0,0,1,0,0,0,1 @ F,0,0,1,0,0,0,1 @ F,0,0,1,0,0,0,1 @ F,0,0,1,0,0,0,1 @ F,0,0,1,0,0,0,1 @ F,0,0,1,0,0,0,1 @ F,0,0,1,0,0,0,1 @ F,0,0,1,0,0,0,1 @ F,0,0,1,0,0,0,1 @ F,0,0,1,0,8.3882572,0,1 @ F,0,0,1,0,8.3882572,0,1 @ F,0,0,1,0,8.2419466,0,1 @ F,0,0,1,0,8.2419466,0,1 @ F,0,0,1,0,0,0,1 @ F,0,0,1,0,0,0,1 @ F,0,0,1,0,0,0,1 @ F,0,0,1,0,0,0,1"
       radius="0"
       unit="px"
       method="auto"
       mode="F"
       chamfer_steps="1"
       flexible="false"
       use_knot_distance="true"
       apply_no_radius="true"
       apply_with_radius="true"
       only_selected="false"
       hide_knots="false" />
    <inkscape:path-effect
       effect="fillet_chamfer"
       id="path-effect3"
       is_visible="true"
       lpeversion="1"
       nodesatellites_param="F,0,0,1,0,10.779779,0,1 @ F,0,0,1,0,10.779779,0,1 @ F,0,0,1,0,0,0,1 @ F,0,0,1,0,0,0,1 @ F,0,0,1,0,0,0,1 @ F,0,1,1,0,12.476524,0,1 @ F,0,0,1,0,12.476524,0,1 @ F,0,0,1,0,0,0,1 @ F,0,0,1,0,0,0,1 @ F,0,0,1,0,0,0,1 @ F,0,0,1,0,0,0,1 @ F,0,0,1,0,0,0,1 @ F,0,0,1,0,0,0,1 @ F,0,0,1,0,0,0,1 @ F,0,0,1,0,0,0,1 @ F,0,0,1,0,0,0,1 @ F,0,0,1,0,0,0,1 @ F,0,0,1,0,0,0,1 @ F,0,0,1,0,10.779779,0,1 | F,0,0,1,0,0,0,1 @ F,0,0,1,0,0,0,1 @ F,0,0,1,0,0,0,1 @ F,0,0,1,0,0,0,1 @ F,0,0,1,0,0,0,1 @ F,0,0,1,0,0,0,1 @ F,0,0,1,0,0,0,1 @ F,0,0,1,0,0,0,1 @ F,0,0,1,0,0,0,1 @ F,0,0,1,0,0,0,1 @ F,0,0,1,0,0,0,1 @ F,0,0,1,0,0,0,1 @ F,0,0,1,0,0,0,1 @ F,0,0,1,0,0,0,1 @ F,0,0,1,0,0,0,1 @ F,0,0,1,0,0,0,1 @ F,0,0,1,0,0,0,1 @ F,0,0,1,0,0,0,1 @ F,0,0,1,0,0,0,1 @ F,0,0,1,0,0,0,1 @ F,0,0,1,0,0,0,1 @ F,0,0,1,0,0,0,1 @ F,0,0,1,0,0,0,1 @ F,0,0,1,0,0,0,1 @ F,0,0,1,0,0,0,1 @ F,0,0,1,0,0,0,1 @ F,0,0,1,0,0,0,1 @ F,0,0,1,0,0,0,1 @ F,0,0,1,0,0,0,1"
       radius="0"
       unit="px"
       method="auto"
       mode="F"
       chamfer_steps="1"
       flexible="false"
       use_knot_distance="true"
       apply_no_radius="true"
       apply_with_radius="true"
       only_selected="false"
       hide_knots="false" />
    <inkscape:path-effect
       effect="fillet_chamfer"
       id="path-effect1"
       is_visible="true"
       lpeversion="1"
       nodesatellites_param="IF,0,0,1,0,0,0,1 @ F,0,0,1,0,0,0,1 @ F,0,0,1,0,0,0,1 @ F,0,0,1,0,0,0,1 @ F,0,0,1,0,0,0,1 @ F,0,0,1,0,15.889488,0,1 @ F,0,0,1,0,15.889488,0,1 @ F,0,0,1,0,8.0233705,0,1 @ F,0,0,1,0,0,0,1 @ F,0,0,1,0,0,0,1 @ F,0,0,1,0,0,0,1 @ F,0,0,1,0,0,0,1 @ F,0,0,1,0,0,0,1 @ F,0,0,1,0,0,0,1 @ F,0,0,1,0,0,0,1 @ F,0,0,1,0,0,0,1 @ F,0,0,1,0,0,0,1 @ F,0,0,1,0,8.0233705,0,1 @ F,0,0,1,0,14.009077,0,1 | F,0,0,1,0,0,0,1 @ F,0,0,1,0,0,0,1 @ F,0,0,1,0,8.2407503,0,1 @ F,0,0,1,0,8.5620427,0,1 @ F,0,0,1,0,0,0,1 @ F,0,0,1,0,0,0,1 @ F,0,0,1,0,0,0,1 @ F,0,0,1,0,0,0,1 @ F,0,0,1,0,0,0,1 @ F,0,0,1,0,0,0,1 @ F,0,0,1,0,0,0,1 @ F,0,0,1,0,0,0,1 @ F,0,0,1,0,0,0,1 @ F,0,0,1,0,0,0,1 @ F,0,0,1,0,0,0,1 @ F,0,0,1,0,0,0,1 @ F,0,0,1,0,0,0,1 @ F,0,0,1,0,0,0,1 @ F,0,0,1,0,0,0,1 @ F,0,0,1,0,0,0,1 @ F,0,0,1,0,0,0,1 @ F,0,0,1,0,10.770637,0,1 @ F,0,0,1,0,10.770637,0,1 @ F,0,0,1,0,9.883177,0,1 @ F,0,0,1,0,9.883177,0,1 @ F,0,0,1,0,0,0,1 @ F,0,0,1,0,15.16764,0,1 @ F,0,0,1,0,0,0,1 @ F,0,0,1,0,0,0,1"
       radius="0"
       unit="px"
       method="auto"
       mode="F"
       chamfer_steps="1"
       flexible="false"
       use_knot_distance="true"
       apply_no_radius="true"
       apply_with_radius="true"
       only_selected="false"
       hide_knots="false" />
    <bx:guide
       x="227.211"
       y="199.078"
       angle="0" />
  </defs>
  <path
     style="fill:#6e00b7;fill-rule:nonzero;stroke:none;stroke-width:2px;stroke-dasharray:none;stroke-opacity:1;paint-order:fill;fill-opacity:1"
     d="m 301.11722,227.49432 0.002,-46.30194 a 5.0932082,5.0932082 45.000994 0 0 -5.09321,-5.09338 h -67.27243 a 2.1311815,2.1311815 45 0 1 -2.13118,-2.13118 v -13.38598 a 1.7848357,1.7848357 135 0 1 1.78484,-1.78484 h 68.02215 a 4.6980067,4.6980067 135 0 0 4.69801,-4.69801 V 128.07948 A 29.079481,29.079481 45 0 0 272.04752,99 H 127.87348 A 29.079481,29.079481 135 0 0 98.794,128.07948 v 25.57114 a 2.7497204,2.7497204 45.128816 0 0 2.73736,2.74969 L 169.07,156.704 c 0.184,0.042 0.609,0.122 1.219,0.375 0.61,0.253 1.406,0.68 2.332,1.418 0.963,0.767 1.885,1.76 2.567,3.139 0.681,1.378 1.122,3.143 1.122,5.452 0,2.31 -0.403,4.03 -1.027,5.343 -0.624,1.312 -1.469,2.216 -2.353,2.895 -0.841,0.646 -1.565,1.002 -2.119,1.201 -0.553,0.199 -0.936,0.242 -1.096,0.261 l -68.05262,0.0961 a 2.7412535,2.7412535 134.95953 0 0 -2.73738,2.74125 l 0,47.86894 a 35.036676,35.036676 45 0 0 35.03668,35.03668 h 132.11764 a 35.037892,35.037892 135.00099 0 0 35.0379,-35.03668 z m -72.21908,-33.16029 56.43486,0.068 0.004,28.77274 a 22.886125,22.886125 134.99005 0 1 -22.88172,22.88967 l -125.64648,0.0242 A 22.880858,22.880858 44.994485 0 1 113.924,223.20774 v -26.68536 a 2.7373839,2.7373839 135 0 1 2.73738,-2.73738 H 135.107 l 31.92914,32.35095 a 5.4614653,5.4614653 22.687987 0 0 3.8871,1.62505 l 20.30552,0 a 0.95130815,0.95130815 112.61901 0 0 0.67547,-1.62118 L 159.713,193.68 c 1.605,-0.007 3.625,-0.016 5.489,-0.024 1.863,-0.007 3.569,-0.013 4.546,-0.013 0.514,0 2.24,-0.145 4.528,-0.727 2.289,-0.583 5.14,-1.603 7.903,-3.354 2.735,-1.733 5.459,-4.265 7.498,-7.822 2.04,-3.557 3.396,-8.139 3.396,-13.972 0,-5.836 -1.482,-10.507 -3.678,-14.195 -2.197,-3.689 -5.107,-6.395 -7.963,-8.304 -2.885,-1.928 -5.784,-3.128 -7.961,-3.845 -2.176,-0.718 -3.632,-0.954 -3.632,-0.954 l -0.039,-0.006 -0.04,-0.007 -51.89115,0.0298 a 3.9206066,3.9206066 44.983575 0 1 -3.92285,-3.92061 v -7.95041 A 14.917729,14.917729 135 0 1 128.86373,113.698 H 270.61227 A 14.917729,14.917729 45 0 1 285.53,128.61573 v 7.93541 a 3.9228551,3.9228551 135 0 1 -3.92286,3.92286 H 246.906 210.57796 a 2.296956,2.296956 135 0 0 -2.29696,2.29696 v 83.55374 a 1.5943021,1.5943021 45 0 0 1.5943,1.5943 l 15.7444,0 c 0.88051,0 1.59417,-0.71379 1.59405,-1.5943 -0.001,-10.10186 0.002,-20.20371 -0.002,-30.30556 -3.5e-4,-0.93178 0.75467,-1.68623 1.68645,-1.68511 z"
     id="path351"
     sodipodi:nodetypes="cccccccccsccscccccccccccccccccscccsccccccccccccccc"
     inkscape:path-effect="#path-effect5"
     inkscape:original-d="m 301.116,262.531 0.003,-86.432 h -74.497 v -17.302 h 74.505 V 99 H 98.794 v 57.388 l 70.276,0.316 c 0.184,0.042 0.609,0.122 1.219,0.375 0.61,0.253 1.406,0.68 2.332,1.418 0.963,0.767 1.885,1.76 2.567,3.139 0.681,1.378 1.122,3.143 1.122,5.452 0,2.31 -0.403,4.03 -1.027,5.343 -0.624,1.312 -1.469,2.216 -2.353,2.895 -0.841,0.646 -1.565,1.002 -2.119,1.201 -0.553,0.199 -0.936,0.242 -1.096,0.261 l -70.79,0.1 v 85.643 z m -73.905,-68.199 58.122,0.07 0.008,51.658 -171.417,0.033 v -52.308 h 21.183 l 33.533,33.976 h 24.872 L 159.713,193.68 c 1.605,-0.007 3.625,-0.016 5.489,-0.024 1.863,-0.007 3.569,-0.013 4.546,-0.013 0.514,0 2.24,-0.145 4.528,-0.727 2.289,-0.583 5.14,-1.603 7.903,-3.354 2.735,-1.733 5.459,-4.265 7.498,-7.822 2.04,-3.557 3.396,-8.139 3.396,-13.972 0,-5.836 -1.482,-10.507 -3.678,-14.195 -2.197,-3.689 -5.107,-6.395 -7.963,-8.304 -2.885,-1.928 -5.784,-3.128 -7.961,-3.845 -2.176,-0.718 -3.632,-0.954 -3.632,-0.954 l -0.039,-0.006 -0.04,-0.007 -55.814,0.032 V 113.698 H 285.53 v 26.776 h -38.624 -38.625 v 87.445 h 18.933 c -0.002,-11.19567 0.002,-22.39133 -0.003,-33.587 z" />
</svg>
